<mxfile host="app.diagrams.net" modified="2023-06-05T10:35:51.437Z" agent="Mozilla/5.0 (Windows NT 10.0; Win64; x64) AppleWebKit/537.36 (KHTML, like Gecko) Chrome/114.0.0.0 Safari/537.36" etag="L3ioq-xuWR2GmBucIfQW" version="21.3.5" type="device">
  <diagram name="PÃ¡gina-1" id="LSAgxOKwOkST_EO0k2Pw">
    <mxGraphModel dx="1221" dy="655" grid="1" gridSize="10" guides="1" tooltips="1" connect="1" arrows="1" fold="1" page="1" pageScale="1" pageWidth="827" pageHeight="1169" math="0" shadow="0">
      <root>
        <mxCell id="0" />
        <mxCell id="1" parent="0" />
        <mxCell id="jdzqkH57mWLV3A2WAXr_-1" value="Solicita o produto" style="rounded=0;whiteSpace=wrap;html=1;fillColor=#6a00ff;fontColor=#ffffff;strokeColor=#3700CC;" parent="1" vertex="1">
          <mxGeometry x="180" y="330" width="100" height="70" as="geometry" />
        </mxCell>
        <mxCell id="jdzqkH57mWLV3A2WAXr_-4" style="edgeStyle=orthogonalEdgeStyle;rounded=0;orthogonalLoop=1;jettySize=auto;html=1;" parent="1" source="jdzqkH57mWLV3A2WAXr_-3" target="jdzqkH57mWLV3A2WAXr_-1" edge="1">
          <mxGeometry relative="1" as="geometry">
            <mxPoint x="173" y="310" as="targetPoint" />
          </mxGeometry>
        </mxCell>
        <mxCell id="jdzqkH57mWLV3A2WAXr_-8" style="edgeStyle=orthogonalEdgeStyle;rounded=0;orthogonalLoop=1;jettySize=auto;html=1;exitX=0.5;exitY=0.5;exitDx=0;exitDy=0;exitPerimeter=0;" parent="1" source="jdzqkH57mWLV3A2WAXr_-3" target="jdzqkH57mWLV3A2WAXr_-7" edge="1">
          <mxGeometry relative="1" as="geometry">
            <Array as="points">
              <mxPoint x="105" y="230" />
            </Array>
          </mxGeometry>
        </mxCell>
        <mxCell id="jdzqkH57mWLV3A2WAXr_-3" value="Cliente" style="shape=umlActor;verticalLabelPosition=bottom;verticalAlign=top;html=1;outlineConnect=0;" parent="1" vertex="1">
          <mxGeometry x="90" y="330" width="30" height="60" as="geometry" />
        </mxCell>
        <mxCell id="jdzqkH57mWLV3A2WAXr_-5" value="Verificar disponibilidade" style="rounded=0;whiteSpace=wrap;html=1;fillColor=#0050ef;fontColor=#ffffff;strokeColor=#001DBC;" parent="1" vertex="1">
          <mxGeometry x="400" y="330" width="120" height="70" as="geometry" />
        </mxCell>
        <mxCell id="jdzqkH57mWLV3A2WAXr_-6" value="" style="endArrow=none;dashed=1;html=1;rounded=0;exitX=1;exitY=0.5;exitDx=0;exitDy=0;" parent="1" source="jdzqkH57mWLV3A2WAXr_-1" target="jdzqkH57mWLV3A2WAXr_-5" edge="1">
          <mxGeometry width="50" height="50" relative="1" as="geometry">
            <mxPoint x="470" y="510" as="sourcePoint" />
            <mxPoint x="520" y="460" as="targetPoint" />
            <Array as="points" />
          </mxGeometry>
        </mxCell>
        <mxCell id="jdzqkH57mWLV3A2WAXr_-7" value="Pessoa" style="shape=umlActor;verticalLabelPosition=bottom;verticalAlign=top;html=1;outlineConnect=0;" parent="1" vertex="1">
          <mxGeometry x="330" y="210" width="30" height="60" as="geometry" />
        </mxCell>
      </root>
    </mxGraphModel>
  </diagram>
</mxfile>
